<?xml version="1.0" encoding="utf-8"?>
<!-- Generator: Adobe Illustrator 19.0.0, SVG Export Plug-In . SVG Version: 6.00 Build 0)  -->
<svg version="1.1" id="Camada_1" xmlns="http://www.w3.org/2000/svg" xmlns:xlink="http://www.w3.org/1999/xlink" x="0px" y="0px"
	 viewBox="0 0 900 900" style="enable-background:new 0 0 900 900;" xml:space="preserve">
<style type="text/css">
	.st0{fill:none;stroke:#FFFFFF;stroke-width:9;}
	.st1{fill:none;stroke:#FFFFFF;stroke-width:9;stroke-miterlimit:10;}
	.st2{fill:#FFFFFF;stroke:#FFFFFF;stroke-width:4;stroke-miterlimit:10;}
	.st3{fill:#517DA5;stroke:#517DA5;stroke-width:9.375000e-002;}
	.st4{fill:#FFFFFF;stroke:#5786B7;stroke-width:9.375000e-002;}
	.st5{fill:#FFFFFF;stroke:#FFFFFF;stroke-width:9.375000e-002;}
</style>
<ellipse id="XMLID_1_" class="st0" cx="449.8" cy="405.5" rx="317.2" ry="317.5"/>
<ellipse id="XMLID_2_" class="st0" cx="449.8" cy="405.5" rx="248.7" ry="249.9"/>
<ellipse id="XMLID_3_" class="st1" cx="450.3" cy="407.2" rx="193.2" ry="198.7"/>
<ellipse id="XMLID_4_" class="st1" cx="451.9" cy="410.3" rx="131.7" ry="132"/>
<line id="XMLID_5_" class="st1" x1="132.6" y1="405.5" x2="767" y2="410.3"/>
<line id="XMLID_6_" class="st1" x1="451.9" y1="89.7" x2="451.9" y2="724.7"/>
<line id="XMLID_7_" class="st0" x1="671.8" y1="630.3" x2="223.3" y2="181.2"/>
<line id="XMLID_8_" class="st1" x1="229" y1="635.3" x2="671.8" y2="180.7"/>
<polygon class="st2" points="451.9,215 508.4,329.5 634.7,347.8 543.3,436.9 564.9,562.7 451.9,503.3 338.9,562.7 360.5,436.9 
	269.1,347.8 395.4,329.5 "/>
<path class="st3" d="M442,307.4c7.7,0,15.4,0,23.1,0c-1.5,5.8-1.1,11.9-1.1,17.9c2,0,3.9,0,5.9,0c0.2-4,0.8-8,1.2-11.9
	c6.3-1,14.2-3.3,19,2.1c-0.4,8.2-1.3,16.5-3.2,24.4c3.8,0.8,7.5,1.8,11.3,2.7c-0.8,5.6-1.5,11.2-2.5,16.7c1.4,0.5,2.9,1,4.3,1.4
	c2.1-4,3.9-8.2,6-12.2c5.3-0.6,10.6-1.5,16-1.3c-0.1,3.9,0.5,7.8-0.4,11.6c-4.2,4.7-8.5,9.6-10.3,15.8c-4.8,16.2-6,33.7-2.8,50.2
	c8.1,8.5,15.1,17.9,23.2,26.5c-3,5.9-4.3,12.8-8.9,17.7c-17.6,20.3-46.1,26.4-71.8,26.3c-22.2-0.4-45.2-6-62.6-20.5
	c-7.6-5.5-9.9-14.9-14.4-22.6V452c8-9.9,16.6-19.3,24.7-29.2c0.9-9.4,0.4-19,0.3-28.5c-1.2-12.8-4-27.5-15.1-35.5
	c0.3-3.9,0.9-7.7,1.3-11.6c5.2-0.2,10.3,0.6,15.5,1.3c1.9,3.9,3.7,7.9,5.4,11.9c1.7-0.1,3.4-0.1,5-0.2c-0.9-5.9-2.3-11.8-3-17.8
	c3.4-1.5,7.4-1.3,11-2.2c0.2-8-2.3-15.7-2.9-23.7c1.4-1.4,2.8-2.8,4.2-4.2c4.9-0.1,9.8-0.1,14.6,1.1c1,3.9,1.7,7.9,2.2,11.9
	c1.6,0,3.2,0,4.8,0C442,319.3,442,313.3,442,307.4 M446,311.9c0,5.5,0,11,0,16.5c-3.7,1.2-7.8,1-11.7,0.5c-3.1-2.5-1.5-6.9-2.4-10.3
	c-2.3-3.7-7.3-2.3-10.9-2.8c1.2,13.4,1.1,28.2,10.1,39.1c0.2-5.2-0.2-10.4,0.1-15.6c-0.1-1.2,0.4-3,1.9-2.7
	c4.9,0.6,9.8,0.8,14.8,0.7c0.6,5.1,0.4,10.2,0,15.3c3.4,0,6.8,0.1,10.2-0.2c0.4-5-0.6-10.2,0.8-15.2c4.9,0.3,9.9,0,14.8-0.6
	c3,5.4,1.7,12.3,1.7,18.4c4.1-4.7,5.9-10.8,7.7-16.7c0.1-7.5,3.4-14.6,2.2-22.2c-3.1-0.1-6.1-0.1-9.2,0.1c-1.4,3.9-2,7.9-2.3,12
	c-4,1.6-8.3,1.3-12.5,1c-1.3-5.7-0.3-11.8-1.8-17.3C455,311.8,450.5,311.8,446,311.9 M463.6,341.9c-1.8,5.1-1.7,14,6.1,11.8
	c0.9-4.1,2-8.4,0.3-12.4C467.9,341.5,465.5,340.8,463.6,341.9 M436.2,343.5c-0.5,3.3-0.2,6.7-0.1,10c2.4-0.2,4.9-0.3,7.3-0.3
	c0-3.8,0-7.5,0-11.3C441,342.3,437.6,341,436.2,343.5 M412.8,346.4c0.1,3.8,2.5,7.3,2.2,11.2c3-0.6,6-1.2,9-1.8
	c-1.1-3.9-2.7-7.6-3.2-11.6C418.1,344.6,415,344.5,412.8,346.4 M482.5,356c3,0.7,6,1.4,9.1,1.2c0.3-3.8,2.2-7.5,2-11.4
	c-2.2-0.8-4.6-1.3-6.9-1.8C485.2,347.9,483.4,351.8,482.5,356 M388.9,352.2c-0.1,1.4-0.2,2.8-0.3,4.2c2.4,2.5,4.6,5.2,7.1,7.8
	c2-1,4.1-1.9,6.1-2.8c-1.6-3.2-3.3-6.4-4.8-9.7C394.3,351.9,391.6,352.1,388.9,352.2 M509.2,352c-1.3,3.2-2.9,6.3-4.5,9.4
	c2.1,0.8,4.2,1.7,6.5,2.3c2.5-1.5,3.9-4.5,6.2-6.4c0.2-1.8,0.4-3.6,0.2-5.4C514.8,351.9,512,351.9,509.2,352 M428.7,360.6
	c0.2,1.7,0.3,3.6,0.8,5.3c5.8-0.3,11.6-1.4,17.5-1.7c0.8-2,1.2-4.2,0.2-6.2C441,358.3,434.5,357.5,428.7,360.6 M452.3,364.3
	c0.6,0.1,1.3,0.1,2,0.1c-0.1-2.3-0.2-4.7-0.5-7C452.5,359.5,452.5,362,452.3,364.3 M458.7,358c0.2,1.9,0,3.9,0.8,5.7
	c5.7,1.6,11.6,1.9,17.5,2.6c0.3-2,0.7-3.9,1.1-5.9C471.8,358.4,465.2,358.3,458.7,358 M409.9,364.2c0.6,2.1,1.2,4.3,1.9,6.3
	c3.4-2.5,8-1.8,11.7-3.6c0.8-1.9,0.4-4,0.5-6C419.2,361.6,414.7,363.6,409.9,364.2 M482.8,360.9c0,2.2-0.1,4.3-0.1,6.4
	c4.3,0.5,8.6,1.6,12.6,3.3c0.6-2.2,1-4.3,1.3-6.5C491.9,363.4,487.4,362.1,482.8,360.9 M397.2,369c0.8,5.9,5.4,4.5,9.2,2.1
	c-0.4-1.8-0.7-3.6-1.1-5.4C402.6,366.7,399.9,367.7,397.2,369 M500.5,372.2c2.4,0.3,4.8,0.6,7.2,1.1c0.5-1.5,1-3,1.5-4.5
	c-2.4-0.8-4.6-1.8-6.7-3.1C500.9,367.5,500.6,369.9,500.5,372.2 M443.2,369.5c-2.5,1.5-1.9,7.6,1.8,6.8c6.3-1.4,12.6,1,18.9-0.1
	c0.8-2.4,1.7-5.2-0.9-6.9C456.4,369.5,449.8,369.1,443.2,369.5 M421.5,372.4c0.3,2.3,0.5,4.6,0.8,6.9c5.1-0.3,10.1-1.2,15.1-2.3
	c0-2.3,0-4.6,0.1-6.8C432.1,370.5,426.8,371.6,421.5,372.4 M469.4,370.4c-0.2,2.3,0.1,4.6,0.6,6.8c4.9,1.7,10.2,1.5,15.3,1.4
	c-0.1-1.8,0-3.7,0-5.6C480.1,371.7,474.8,370.9,469.4,370.4 M402.8,378.1c-3.1,0.9-1.3,4.4-0.9,6.6c5.2-1.1,10.2-2.7,15.3-3.7
	c-0.1-2.4-0.2-4.8-0.3-7.2C412.3,375.4,407.4,376.4,402.8,378.1 M489.8,374.1c0.2,2.2-0.3,4.7,0.8,6.6c4.7,2,9.8,2.8,14.7,4
	c0.1-2.1,0.1-4.2,0-6.3C500.1,377.1,495.1,374.9,489.8,374.1 M450.4,380.6c-6.7,1.1-12.7,6.8-12.3,13.9c0.3,17.9,0.1,35.8,0.2,53.6
	c8.6,1.1,17.4-0.9,25.9,0.2c-0.1-19,0-38-0.1-57C463.6,384.4,456.6,380.6,450.4,380.6 M432.9,382.3c-0.1,2.5-0.2,5-0.5,7.5
	c1.5-2.5,3.2-5,5-7.4C435.9,382.4,434.4,382.4,432.9,382.3 M465.7,381.9c1.5,2.3,2.8,4.7,3.6,7.2c1.4,0.5,2.7,0.9,4,1.3
	c0.6-2.5,1.3-5.2,0.3-7.7C471,382.1,468.3,382.1,465.7,381.9 M413,387.3c0,2.1,0,4.2,0,6.3c5.1-1,10.2-1.8,15-3.5
	c-0.4-2.1-0.7-4.1-1-6.2C422.1,383.9,417.8,386.4,413,387.3 M479.1,384c-0.1,2.1-0.2,4.3-0.2,6.5c4.8,0.9,9.6,1.5,14.2,3.1
	c0-2.2,0.1-4.3,0.2-6.5C488.6,385.8,484,384.1,479.1,384 M402.8,390.7c-0.6,4.2,1.3,6.7,5.5,4.7c0-2.4-0.1-4.8-0.1-7.1
	C406.5,389.3,404.7,390.1,402.8,390.7 M499.4,387.9c-0.6,2.2-1.1,4.3-1.6,6.5c1.7,0.8,3.3,1.6,4.9,2.3c0.3-1.9,0.7-3.9,1-5.8
	C502.3,389.9,500.8,388.9,499.4,387.9 M470.2,394.3c-1.9,1.4-0.9,4.1-1.3,6.1c3.9,1.7,8.2,2,12.2,3c1-2.4,1-5,1-7.6
	C478.1,396.1,474.2,394.8,470.2,394.3 M424.7,396.1c0.1,2.4,0.2,4.8,0.3,7.2c2.8-0.5,5.6-0.9,8.4-1.2c-0.1-2.4-0.2-4.8-0.2-7.2
	C430.4,395.1,427.5,395.6,424.7,396.1 M487.2,397.2c0.1,2.3-1.4,4.9-0.3,6.9c5.2,2.1,10.9,2.4,16.3,4.1c0-2.3-0.3-4.6-1.3-6.7
	C497.1,399.9,492.1,398.7,487.2,397.2 M403.2,408.2c5.6-0.8,11.1-3,16.8-3.8c-0.4-2.3-0.7-4.6-1-7
	C413.1,400.2,401.8,398.6,403.2,408.2 M432,406.3c0,2.2,0,4.4,0,6.7c0.5,0.3,1.5,1.1,2,1.5c0-2.7,0-5.5,0-8.2
	C433.5,406.3,432.5,406.3,432,406.3 M470.2,406.3c-2.8,2.6-1.3,8.3,3.1,7.8C472.9,411.6,474.5,405.9,470.2,406.3 M413.2,410.7
	c-0.1,2.4-0.3,4.8-0.4,7.2c4.6-1.2,9.3-2.1,14-2.8c2.1-1.4,3.5-6.3,0.2-7.1C422.4,408.4,418,410.6,413.2,410.7 M478,407.9
	c0,2.3,0.1,4.6,0.2,6.9c5,0.9,10,2,15.1,3c0-2.2,0.1-4.4,0.2-6.7C488.4,409.6,483.3,408,478,407.9 M403.1,419.1
	c1.2,1.7,3.5,0.3,5.3,0.4c-0.1-2.5-0.2-5-0.3-7.5C405.2,413.2,402.3,415.6,403.1,419.1 M498.7,413.2c0,2.1,0,4.2-0.1,6.2
	c1.6,0.5,3.1,0.9,4.6,1.3c0.1-2,0.1-4.1,0-6.2C501.7,414.1,500.2,413.7,498.7,413.2 M471.5,418.6c-2.7,0.3-3.4,4.2-1.9,6.1
	c3.7,1.9,8,2.3,12.2,2.4C484.5,420,476.8,418.7,471.5,418.6 M424.1,421.1c0.4,2,0.7,4,0.9,5.9c2.8-0.2,5.5-0.3,8.3-0.2
	c0-2.6,0-5.2,0-7.8C430.1,419.2,427,419.6,424.1,421.1 M406.5,425.2c0.1,2.1,0.3,4.3,0.4,6.4c4.4-1.1,9.3-1.4,13.1-4.2
	c0-1.8-0.1-3.6-0.1-5.5C415.4,422.7,410.9,424,406.5,425.2 M486.7,421.8c0,2.1,0,4.2,0,6.3c4.3,1.6,8.6,3,13.2,3.3
	C502.7,422.9,492.4,422.9,486.7,421.8 M401,425.3c0,3,0,6,0,9h1c0-3,0-6,0-9H401 M503,426c0,2.7,0,5.3,0.1,8
	c0.5,0.4,1.4,1.2,1.9,1.6c0-2.7,0-5.3,0-8C504.5,427.2,503.5,426.4,503,426 M433,431.6c0.2,3-0.7,6.5,1.3,9.1
	c-0.3-3.5,0.1-7.1,0.8-10.6C434.6,430.5,433.5,431.2,433,431.6 M468.9,431.2c0.1,2.4,0,5,1.4,7.1c4,0.5,2.4-4.8,2.7-7.2
	C471.6,431.1,470.3,431.1,468.9,431.2 M383.4,448.5c3.6-0.7,9.2,1.5,11.3-2.4c0.1-4.9,2.1-9.5,2.4-14.4
	C392.7,437.5,387.1,442.3,383.4,448.5 M414.1,435.1c-0.1,2.4-0.1,4.9-0.2,7.3c4-2.3,8.6-2.5,13-3.1c3.6-0.6,1.7-4.9,2-7.3
	C423.8,432.1,419,433.8,414.1,435.1 M477.7,431.9c0,2.2-0.1,4.4-0.1,6.6c4.8,1.5,10.3,1.2,14.7,3.9c0.5-2,0.7-4.1,0.9-6.2
	C488.7,433,483,432.7,477.7,431.9 M509.8,432.9c0.9,4.9,1.7,9.7,2.3,14.6c3.4,0.9,6.9,0.9,10.3,1c-0.6-1.3-1.1-2.6-1.7-3.9
	C516.7,441.2,513.8,436.6,509.8,432.9 M400.8,439.5c-0.2,2.2-0.5,4.5-0.9,6.8c3-1.3,6.1-2.2,9.2-3c0-2.2,0-4.3,0-6.5
	C406.2,437.3,403.5,438.3,400.8,439.5 M498,436.9c-0.1,2.3,0,4.7,0.1,7c3,0.1,5.9,0.8,8.3,2.6C507.7,440.7,503.4,437.1,498,436.9
	 M411,448.3c7.5,0,14.9,0.2,22.4,0c0-1.6,0-3.2,0.1-4.9C425.9,444.2,418,445.1,411,448.3 M469.2,443.4c-0.1,1.6-0.1,3.2-0.1,4.7
	c8.9,0.2,17.7,0.7,26.5,0.1C487.2,445.1,478.2,442.9,469.2,443.4 M380.4,451.3c0,1,0,2-0.1,3c7.9,0,15.8-0.1,23.7-0.1
	c0.1,8.7-0.4,17.4,0.4,26.1c-9.8-6.5-21.9-13-24.2-25.5c0.6,4.2,0.7,9.3,4.8,11.7c9.3,9.9,21.9,16.2,33.9,22
	c8.5,1.7,17.3,3.3,26,2.4l-1.2,0.4c12,1,24.3-0.3,36.3-1.5c9.4-0.9,16.8-7.7,25.8-9.8c3.8-1.3,5.5-5.2,8.6-7.4
	c6.6-3.6,9.8-11.1,12.6-17.7c-3.8,5-5.6,11.6-11,15.4c-4.9,3.4-8.3,9.8-15,9.6c0-8.5,0-17.1,0-25.6c8.5,0,17.1-0.1,25.6,0
	c0.5-1,0.9-2,1.4-3C478.8,451.3,429.6,451.4,380.4,451.3 M385.9,457.4c2.1,7.9,9.9,11.9,15.2,17.5c0.6-5.5,0-11,0.7-16.4
	c-1.3-3.3-5.2-1.2-7.8-1.5C391.4,457.5,388.3,455.8,385.9,457.4 M504.8,457.1c-0.1,5.5-0.1,10.9,0.1,16.4c7-3.1,13.3-9.1,15.6-16.5
	C515.2,456.9,510,457,504.8,457.1z"/>
<path class="st4" d="M446,311.9c4.5-0.1,9-0.1,13.5,0c1.5,5.5,0.5,11.6,1.8,17.3c4.2,0.3,8.5,0.6,12.5-1c0.3-4.1,0.9-8.1,2.3-12
	c3.1-0.2,6.1-0.2,9.2-0.1c1.2,7.6-2.1,14.7-2.2,22.2c-1.8,5.9-3.6,12-7.7,16.7c0-6.1,1.3-13-1.7-18.4c-4.9,0.6-9.9,0.9-14.8,0.6
	c-1.4,5-0.4,10.2-0.8,15.2c-3.4,0.3-6.8,0.2-10.2,0.2c0.4-5.1,0.6-10.2,0-15.3c-5,0.1-9.9-0.1-14.8-0.7c-1.5-0.3-2,1.5-1.9,2.7
	c-0.3,5.2,0.1,10.4-0.1,15.6c-9-10.9-8.9-25.7-10.1-39.1c3.6,0.5,8.6-0.9,10.9,2.8c0.9,3.4-0.7,7.8,2.4,10.3c3.9,0.5,8,0.7,11.7-0.5
	C446,322.9,446,317.4,446,311.9z"/>
<path class="st4" d="M463.6,341.9c1.9-1.1,4.3-0.4,6.4-0.6c1.7,4,0.6,8.3-0.3,12.4C461.9,355.9,461.8,347,463.6,341.9z"/>
<path class="st4" d="M436.2,343.5c1.4-2.5,4.8-1.2,7.2-1.6c0,3.8,0,7.5,0,11.3c-2.4,0-4.9,0.1-7.3,0.3
	C436,350.2,435.7,346.8,436.2,343.5z"/>
<path class="st4" d="M412.8,346.4c2.2-1.9,5.3-1.8,8-2.2c0.5,4,2.1,7.7,3.2,11.6c-3,0.6-6,1.2-9,1.8
	C415.3,353.7,412.9,350.2,412.8,346.4z"/>
<path class="st4" d="M482.5,356c0.9-4.2,2.7-8.1,4.2-12c2.3,0.5,4.7,1,6.9,1.8c0.2,3.9-1.7,7.6-2,11.4
	C488.5,357.4,485.5,356.7,482.5,356z"/>
<path class="st4" d="M388.9,352.2c2.7-0.1,5.4-0.3,8.1-0.5c1.5,3.3,3.2,6.5,4.8,9.7c-2,0.9-4.1,1.8-6.1,2.8
	c-2.5-2.6-4.7-5.3-7.1-7.8C388.7,355,388.8,353.6,388.9,352.2z"/>
<path class="st4" d="M509.2,352c2.8-0.1,5.6-0.1,8.4-0.1c0.2,1.8,0,3.6-0.2,5.4c-2.3,1.9-3.7,4.9-6.2,6.4c-2.3-0.6-4.4-1.5-6.5-2.3
	C506.3,358.3,507.9,355.2,509.2,352z"/>
<path class="st4" d="M428.7,360.6c5.8-3.1,12.3-2.3,18.5-2.6c1,2,0.6,4.2-0.2,6.2c-5.9,0.3-11.7,1.4-17.5,1.7
	C429,364.2,428.9,362.3,428.7,360.6z"/>
<path class="st4" d="M452.3,364.3c0.2-2.3,0.2-4.8,1.5-6.9c0.3,2.3,0.4,4.7,0.5,7C453.6,364.4,452.9,364.4,452.3,364.3z"/>
<path class="st4" d="M458.7,358c6.5,0.3,13.1,0.4,19.4,2.4c-0.4,2-0.8,3.9-1.1,5.9c-5.9-0.7-11.8-1-17.5-2.6
	C458.7,361.9,458.9,359.9,458.7,358z"/>
<path class="st4" d="M409.9,364.2c4.8-0.6,9.3-2.6,14.1-3.3c-0.1,2,0.3,4.1-0.5,6c-3.7,1.8-8.3,1.1-11.7,3.6
	C411.1,368.5,410.5,366.3,409.9,364.2z"/>
<path class="st4" d="M482.8,360.9c4.6,1.2,9.1,2.5,13.8,3.2c-0.3,2.2-0.7,4.3-1.3,6.5c-4-1.7-8.3-2.8-12.6-3.3
	C482.7,365.2,482.8,363.1,482.8,360.9z"/>
<path class="st4" d="M397.2,369c2.7-1.3,5.4-2.3,8.1-3.3c0.4,1.8,0.7,3.6,1.1,5.4C402.6,373.5,398,374.9,397.2,369z"/>
<path class="st4" d="M500.5,372.2c0.1-2.3,0.4-4.7,2-6.5c2.1,1.3,4.3,2.3,6.7,3.1c-0.5,1.5-1,3-1.5,4.5
	C505.3,372.8,502.9,372.5,500.5,372.2z"/>
<path class="st4" d="M443.2,369.5c6.6-0.4,13.2,0,19.8-0.2c2.6,1.7,1.7,4.5,0.9,6.9c-6.3,1.1-12.6-1.3-18.9,0.1
	C441.3,377.1,440.7,371,443.2,369.5z"/>
<path class="st4" d="M421.5,372.4c5.3-0.8,10.6-1.9,16-2.2c-0.1,2.2-0.1,4.5-0.1,6.8c-5,1.1-10,2-15.1,2.3
	C422,377,421.8,374.7,421.5,372.4z"/>
<path class="st4" d="M469.4,370.4c5.4,0.5,10.7,1.3,15.9,2.6c0,1.9-0.1,3.8,0,5.6c-5.1,0.1-10.4,0.3-15.3-1.4
	C469.5,375,469.2,372.7,469.4,370.4z"/>
<path class="st4" d="M402.8,378.1c4.6-1.7,9.5-2.7,14.1-4.3c0.1,2.4,0.2,4.8,0.3,7.2c-5.1,1-10.1,2.6-15.3,3.7
	C401.5,382.5,399.7,379,402.8,378.1z"/>
<path class="st4" d="M489.8,374.1c5.3,0.8,10.3,3,15.5,4.3c0.1,2.1,0.1,4.2,0,6.3c-4.9-1.2-10-2-14.7-4
	C489.5,378.8,490,376.3,489.8,374.1z"/>
<path class="st4" d="M450.4,380.6c6.2,0,13.2,3.8,13.7,10.7c0.1,19,0,38,0.1,57c-8.5-1.1-17.3,0.9-25.9-0.2
	c-0.1-17.8,0.1-35.7-0.2-53.6C437.7,387.4,443.7,381.7,450.4,380.6z"/>
<path class="st4" d="M432.9,382.3c1.5,0.1,3,0.1,4.5,0.1c-1.8,2.4-3.5,4.9-5,7.4C432.7,387.3,432.8,384.8,432.9,382.3z"/>
<path class="st4" d="M465.7,381.9c2.6,0.2,5.3,0.2,7.9,0.8c1,2.5,0.3,5.2-0.3,7.7c-1.3-0.4-2.6-0.8-4-1.3
	C468.5,386.6,467.2,384.2,465.7,381.9z"/>
<path class="st4" d="M413,387.3c4.8-0.9,9.1-3.4,14-3.4c0.3,2.1,0.6,4.1,1,6.2c-4.8,1.7-9.9,2.5-15,3.5
	C413,391.5,413,389.4,413,387.3z"/>
<path class="st4" d="M479.1,384c4.9,0.1,9.5,1.8,14.2,3.1c-0.1,2.2-0.2,4.3-0.2,6.5c-4.6-1.6-9.4-2.2-14.2-3.1
	C478.9,388.3,479,386.1,479.1,384z"/>
<path class="st4" d="M402.8,390.7c1.9-0.6,3.7-1.4,5.4-2.4c0,2.3,0.1,4.7,0.1,7.1C404.1,397.4,402.2,394.9,402.8,390.7z"/>
<path class="st4" d="M499.4,387.9c1.4,1,2.9,2,4.3,3c-0.3,1.9-0.7,3.9-1,5.8c-1.6-0.7-3.2-1.5-4.9-2.3
	C498.3,392.2,498.8,390.1,499.4,387.9z"/>
<path class="st4" d="M470.2,394.3c4,0.5,7.9,1.8,11.9,1.5c0,2.6,0,5.2-1,7.6c-4-1-8.3-1.3-12.2-3
	C469.3,398.4,468.3,395.7,470.2,394.3z"/>
<path class="st4" d="M424.7,396.1c2.8-0.5,5.7-1,8.5-1.2c0,2.4,0.1,4.8,0.2,7.2c-2.8,0.3-5.6,0.7-8.4,1.2
	C424.9,400.9,424.8,398.5,424.7,396.1z"/>
<path class="st4" d="M487.2,397.2c4.9,1.5,9.9,2.7,14.7,4.3c1,2.1,1.3,4.4,1.3,6.7c-5.4-1.7-11.1-2-16.3-4.1
	C485.8,402.1,487.3,399.5,487.2,397.2z"/>
<path class="st4" d="M403.2,408.2c-1.4-9.6,9.9-8,15.8-10.8c0.3,2.4,0.6,4.7,1,7C414.3,405.2,408.8,407.4,403.2,408.2z"/>
<path class="st4" d="M432,406.3c0.5,0,1.5,0,2,0c0,2.7,0,5.5,0,8.2c-0.5-0.4-1.5-1.2-2-1.5C432,410.7,432,408.5,432,406.3z"/>
<path class="st4" d="M470.2,406.3c4.3-0.4,2.7,5.3,3.1,7.8C468.9,414.6,467.4,408.9,470.2,406.3z"/>
<path class="st4" d="M413.2,410.7c4.8-0.1,9.2-2.3,13.8-2.7c3.3,0.8,1.9,5.7-0.2,7.1c-4.7,0.7-9.4,1.6-14,2.8
	C412.9,415.5,413.1,413.1,413.2,410.7z"/>
<path class="st4" d="M478,407.9c5.3,0.1,10.4,1.7,15.5,3.2c-0.1,2.3-0.2,4.5-0.2,6.7c-5.1-1-10.1-2.1-15.1-3
	C478.1,412.5,478,410.2,478,407.9z"/>
<path class="st4" d="M403.1,419.1c-0.8-3.5,2.1-5.9,5-7.1c0.1,2.5,0.2,5,0.3,7.5C406.6,419.4,404.3,420.8,403.1,419.1z"/>
<path class="st4" d="M498.7,413.2c1.5,0.5,3,0.9,4.5,1.3c0.1,2.1,0.1,4.2,0,6.2c-1.5-0.4-3-0.8-4.6-1.3
	C498.7,417.4,498.7,415.3,498.7,413.2z"/>
<path class="st4" d="M471.5,418.6c5.3,0.1,13,1.4,10.3,8.5c-4.2-0.1-8.5-0.5-12.2-2.4C468.1,422.8,468.8,418.9,471.5,418.6z"/>
<path class="st4" d="M424.1,421.1c2.9-1.5,6-1.9,9.2-2.1c0,2.6,0,5.2,0,7.8c-2.8-0.1-5.5,0-8.3,0.2
	C424.8,425.1,424.5,423.1,424.1,421.1z"/>
<path class="st4" d="M406.5,425.2c4.4-1.2,8.9-2.5,13.4-3.3c0,1.9,0.1,3.7,0.1,5.5c-3.8,2.8-8.7,3.1-13.1,4.2
	C406.8,429.5,406.6,427.3,406.5,425.2z"/>
<path class="st4" d="M486.7,421.8c5.7,1.1,16,1.1,13.2,9.6c-4.6-0.3-8.9-1.7-13.2-3.3C486.7,426,486.7,423.9,486.7,421.8z"/>
<path class="st4" d="M401,425.3h1c0,3,0,6,0,9h-1C401,431.3,401,428.3,401,425.3z"/>
<path class="st4" d="M503,426c0.5,0.4,1.5,1.2,2,1.6c0,2.7,0,5.3,0,8c-0.5-0.4-1.4-1.2-1.9-1.6C503,431.3,503,428.7,503,426z"/>
<path class="st4" d="M433,431.6c0.5-0.4,1.6-1.1,2.1-1.5c-0.7,3.5-1.1,7.1-0.8,10.6C432.3,438.1,433.2,434.6,433,431.6z"/>
<path class="st4" d="M468.9,431.2c1.4-0.1,2.7-0.1,4.1-0.1c-0.3,2.4,1.3,7.7-2.7,7.2C468.9,436.2,469,433.6,468.9,431.2z"/>
<path class="st4" d="M383.4,448.5c3.7-6.2,9.3-11,13.7-16.8c-0.3,4.9-2.3,9.5-2.4,14.4C392.6,450,387,447.8,383.4,448.5z"/>
<path class="st4" d="M414.1,435.1c4.9-1.3,9.7-3,14.8-3.1c-0.3,2.4,1.6,6.7-2,7.3c-4.4,0.6-9,0.8-13,3.1
	C414,440,414,437.5,414.1,435.1z"/>
<path class="st4" d="M477.7,431.9c5.3,0.8,11,1.1,15.5,4.3c-0.2,2.1-0.4,4.2-0.9,6.2c-4.4-2.7-9.9-2.4-14.7-3.9
	C477.6,436.3,477.7,434.1,477.7,431.9z"/>
<path class="st4" d="M509.8,432.9c4,3.7,6.9,8.3,10.9,11.7c0.6,1.3,1.1,2.6,1.7,3.9c-3.4-0.1-6.9-0.1-10.3-1
	C511.5,442.6,510.7,437.8,509.8,432.9z"/>
<path class="st4" d="M400.8,439.5c2.7-1.2,5.4-2.2,8.3-2.7c0,2.2,0,4.3,0,6.5c-3.1,0.8-6.2,1.7-9.2,3
	C400.3,444,400.6,441.7,400.8,439.5z"/>
<path class="st4" d="M498,436.9c5.4,0.2,9.7,3.8,8.4,9.6c-2.4-1.8-5.3-2.5-8.3-2.6C498,441.6,497.9,439.2,498,436.9z"/>
<path class="st4" d="M411,448.3c7-3.2,14.9-4.1,22.5-4.9c-0.1,1.7-0.1,3.3-0.1,4.9C425.9,448.5,418.5,448.3,411,448.3z"/>
<path class="st4" d="M469.2,443.4c9-0.5,18,1.7,26.4,4.8c-8.8,0.6-17.6,0.1-26.5-0.1C469.1,446.6,469.1,445,469.2,443.4z"/>
<path class="st3" d="M380.4,451.3c49.2,0.1,98.4,0,147.6,0c-0.5,1-0.9,2-1.4,3c-8.5-0.1-17.1,0-25.6,0c0,8.5,0,17.1,0,25.6
	c6.7,0.2,10.1-6.2,15-9.6c5.4-3.8,7.2-10.4,11-15.4c-2.8,6.6-6,14.1-12.6,17.7c-3.1,2.2-4.8,6.1-8.6,7.4c-9,2.1-16.4,8.9-25.8,9.8
	c-12,1.2-24.3,2.5-36.3,1.5l1.2-0.4c2,0.1,4.1,0.2,6.1,0.3c0-12.4,0-24.7,0-37c-7.7-0.1-15.3-0.1-23,0c0,11.7,0,23.4,0,35.1
	c5.6,0.8,11.2,1.1,16.9,1.6c-8.7,0.9-17.5-0.7-26-2.4c-12-5.8-24.6-12.1-33.9-22c-4.1-2.4-4.2-7.5-4.8-11.7
	c2.3,12.5,14.4,19,24.2,25.5c-0.8-8.7-0.3-17.4-0.4-26.1c-7.9,0-15.8,0.1-23.7,0.1C380.4,453.3,380.4,452.3,380.4,451.3 M406,454.2
	c0,8.9-0.1,17.8,0.1,26.7c6.8,3.4,12.9,8,20.8,8.5c-2-11.6-0.4-23.5-0.9-35.2C419.3,454.2,412.7,454.1,406,454.2 M454,454.2
	c0,12,0,24.1,0,36.1c8.2,0.3,16.3,0.2,24.4-1.4c-0.9-11.6-0.8-23.1-1.4-34.6C469.3,454.1,461.7,454.2,454,454.2 M480,454.2
	c-0.7,10.8,1.3,21.9-1,32.4c0.6,0.7,1.2,1.5,1.9,2.3c6.1-1.7,12.7-3.8,17.6-7.9c1.1-8.8,0.2-17.8,0.5-26.7
	C492.7,454.2,486.3,454.2,480,454.2z"/>
<path class="st3" d="M406,454.2c6.7-0.1,13.3,0,20,0c0.5,11.7-1.1,23.6,0.9,35.2c-7.9-0.5-14-5.1-20.8-8.5
	C405.9,472,406,463.1,406,454.2 M410,458.2c0.2,6.9,0.7,13.8,1,20.8c3.9,1.5,7.8,2.9,12,3.8c0-8.6-0.1-17.2,0-25.7
	C418.6,456.9,413.9,455.6,410,458.2z"/>
<path class="st3" d="M428,454.2c7.7-0.1,15.3-0.1,23,0c0,12.3,0,24.6,0,37c-2-0.1-4.1-0.2-6.1-0.3c-5.7-0.5-11.3-0.8-16.9-1.6
	C428,477.6,428,465.9,428,454.2 M431.8,457.1c0.7,8.7-0.3,17.4,0.3,26c4.5,3.2,12,4.6,16.7,2c-0.4-9.4,1.7-19.3-1.3-28.3
	C442.3,456.9,437,457.2,431.8,457.1z"/>
<path class="st3" d="M454,454.2c7.7,0,15.3-0.1,23,0.1c0.6,11.5,0.5,23,1.4,34.6c-8.1,1.6-16.2,1.7-24.4,1.4
	C454,478.3,454,466.2,454,454.2 M458.2,457.1c-2.8,9.5,0.1,19.4-0.3,29.1c5.5,0.4,11-0.3,16.2-1.9c0.3-9.2-0.2-18.3,0.1-27.4
	C468.9,457.1,463.5,457,458.2,457.1z"/>
<path class="st3" d="M480,454.2c6.3,0,12.7,0,19,0.1c-0.3,8.9,0.6,17.9-0.5,26.7c-4.9,4.1-11.5,6.2-17.6,7.9
	c-0.7-0.8-1.3-1.6-1.9-2.3C481.3,476.1,479.3,465,480,454.2 M483.6,457c-1.2,8.6-0.3,17.4-0.5,26c4.4-2.2,13.4-1.6,12.3-8.7
	c-0.4-5.7,1.7-11.6-0.4-17.1C491.2,457,487.4,457,483.6,457z"/>
<path class="st4" d="M385.9,457.4c2.4-1.6,5.5,0.1,8.1-0.4c2.6,0.3,6.5-1.8,7.8,1.5c-0.7,5.4-0.1,10.9-0.7,16.4
	C395.8,469.3,388,465.3,385.9,457.4z"/>
<path class="st4" d="M410,458.2c3.9-2.6,8.6-1.3,13-1.1c-0.1,8.5,0,17.1,0,25.7c-4.2-0.9-8.1-2.3-12-3.8
	C410.7,472,410.2,465.1,410,458.2z"/>
<path class="st4" d="M431.8,457.1c5.2,0.1,10.5-0.2,15.7-0.3c3,9,0.9,18.9,1.3,28.3c-4.7,2.6-12.2,1.2-16.7-2
	C431.5,474.5,432.5,465.8,431.8,457.1z"/>
<path class="st4" d="M458.2,457.1c5.3-0.1,10.7,0,16-0.2c-0.3,9.1,0.2,18.2-0.1,27.4c-5.2,1.6-10.7,2.3-16.2,1.9
	C458.3,476.5,455.4,466.6,458.2,457.1z"/>
<path class="st4" d="M483.6,457c3.8,0,7.6,0,11.4,0.2c2.1,5.5,0,11.4,0.4,17.1c1.1,7.1-7.9,6.5-12.3,8.7
	C483.3,474.4,482.4,465.6,483.6,457z"/>
<path class="st4" d="M504.8,457.1c5.2-0.1,10.4-0.2,15.7-0.1c-2.3,7.4-8.6,13.4-15.6,16.5C504.7,468,504.7,462.6,504.8,457.1z"/>
<path class="st5" d="M674.5,65.7c17.8,7.9,36.5,13.4,53.1,24c14.3,9,26.1,22.2,34.9,37.3c9,15.5,14.7,32.8,18.9,50.4
	c1,4.3,3,8.2,4.5,12.2c-33.7-25.7-62.7-58.4-85.3-95.7C692.1,84.3,683.2,75.1,674.5,65.7z"/>
<path class="st5" d="M168.5,91.8c14.9-8.8,31-15,46.9-21.5c-22.6,20.8-38.8,47.9-56.1,73.6c-15,20-35.4,33.9-52.9,51.2
	c8.7-19.1,9.7-41.4,20.2-59.6c3.4-5.3,6.4-11,10.2-16C145.2,107.9,156.4,98.9,168.5,91.8z"/>
<path class="st5" d="M759.8,109.6c15.2,3.2,28.7,12.8,39.4,24.7c12.9,14.5,22.5,32.7,25.3,52.7c5,32.8-4,66.1,2.4,98.8
	c-4.6-8.6-9.8-16.8-16.1-23.9c-14.3-16.6-31.9-29-48.1-43.1c-9.8-8.7-19.6-17.8-26.6-29.2c-9.3-15.2-14.6-33.1-17.1-51
	c5.9,14.7,16.7,26.4,28.6,35.6c14.4,11.4,30.3,20.7,43,34.4c3.1,3.3,5.8,7.1,8.8,10.5c5.1,5.7,7.8,13.2,11.2,20.1
	c0.7,1.5,1.4,3.4,3,4.3c-4.2-11-8.3-22.1-11.3-33.6c-5.2-18.8-8.9-38-13.9-56.9C784.1,135.4,773.8,119.6,759.8,109.6z"/>
<path class="st5" d="M109.1,125.5c6.7-4.6,14.1-8,21.7-10.1c-8.2,5.9-15.1,14-19.8,23.3c-11.4,22.4-12.2,48.5-19,72.5
	c-2.9,11.4-7.6,22.2-10.6,33.6c-0.5,1.7-1,3.4-0.7,5.3c6.1-15.6,15.4-29.7,26.8-41.2c14.6-13.8,32.1-23.6,46.4-37.9
	c7.9-7.8,14.5-17.3,18.2-28.3c-0.1,22.2-9.4,43.1-22.2,60c-12.2,16.2-27.2,29.7-42.9,41.8c-4.5,3.2-8.5,7.3-12.5,11.3
	c-10.2,10.3-19.4,21.9-26,35.2c-0.6-12,1.9-24,0.7-36c-1.8-20.6-3.4-41.5-0.6-62.1c2-14.8,6.7-29.5,15.3-41.5
	C91.3,141.7,99.1,132.1,109.1,125.5z"/>
<path class="st5" d="M827.7,169c4.3,2.9,7.4,7.1,10.1,11.6c3.8,6.5,8.4,12.3,11.9,19.1c16.1,29.7,21.7,65.4,17.5,99.4
	c-1.8,12.8-4.9,25.5-10,37.2c-8.2,20-13.3,41.3-16.6,62.9c-1.4-4.3-1.8-9-3-13.4c-4.2-16.4-12.3-31.2-21.4-44.9
	c-10.6-16.3-22.8-31.5-33.1-48.2c-12.9-20.5-20.6-44.4-25-68.7c16.1,30.8,48.3,46.1,66,75.4c3.6,5.8,5.7,12.5,8.3,18.9
	c3.2,8.8,3.1,18.6,5.8,27.5l1,0.6c0.2-3.1-0.6-6.2-0.8-9.3c-3.8-34.9-2.5-70.3,1.7-105.1c0.9-5.9,0.5-12,0.3-17.9
	C839.6,198.3,836.4,182,827.7,169z"/>
<path class="st5" d="M61.4,178c0.6-1.2,1.7-1.8,2.9-2.3c-3.3,5.8-6.3,11.9-8.1,18.4c-3.9,13.2-4.3,27.2-3.3,40.8
	c1.5,23.8,6.7,47.2,6.2,71.1c-0.9,14.4-1.9,28.7-3,43.1c-0.4,1.4,0.1,2.7,1.2,3.6c2.1-8.8,2.3-18.1,5.2-26.7
	c6.2-20.6,19.9-37.2,34.1-51.9c7.6-7.9,15.4-15.3,23.3-22.8c5.9-6.1,10.9-13.4,14.2-21.5c-1.8,18.2-7.2,35.9-14.3,52.5
	c-14.4,30-36.5,54.6-51.3,84.4c-6,12-10.5,25-12.5,38.6c-2.7-37.6-24.5-69.6-29-106.8c-1-7.4-0.9-15-0.7-22.5
	c-0.2-14.7,1.9-29.4,6.3-43.3C38.7,212.6,49.3,194.5,61.4,178z"/>
<path class="st5" d="M878.6,315c0.6-8.4-0.3-16.8-1.3-25.2c13.8,32.5,15.6,69.7,9.3,104.4c-3.5,18.4-9.2,36.4-17.7,52.8
	c-16.6,25.1-36.2,47.6-51.7,73.4c1.6-19,3.4-38.6-1.4-57.3c-13.6-42.5-25.5-86.1-29.2-131c-0.3-6.5,0.2-12.9,0.2-19.4
	c8.1,37.6,37.1,64.6,46.7,101.5c2.6,9.7,3.1,19.8,2.9,29.8c0.5,10.8-3.4,21.1-4.9,31.7c1.7-0.2,2.3-2.2,2.8-3.7
	c4.6-19,7.6-38.4,13-57.1c4-13.9,10.3-26.7,15.6-40C870.7,355.9,877.6,336,878.6,315z"/>
<path class="st5" d="M19,296.8c-0.6,5.1-1.4,10.1-1.5,15.2c-0.6,15.2,2.5,30.3,7.3,44.4c7.8,22.8,19.4,43.7,26.4,66.8
	c4.7,15.2,6.4,31.2,10.3,46.6c1.3,4.3,2.1,8.8,4.6,12.5c0.9-1.9-0.3-3.8-0.6-5.6c-6.6-21.8-4.6-45.6,2.5-66.9
	c6.7-20.3,17-38.8,28-56.6c6.6-10.6,10.1-23.1,13-35.3c2.1,18.7-0.9,37.5-3.7,56c-3.4,26.9-11.4,52.7-18.4,78.7
	c-2.9,11-6.8,21.9-7.8,33.4c-1.2,13.3,0.1,26.7,1.8,39.9c-1.2-1-2.3-2-3.1-3.3c-12.3-23.3-30.9-41.5-45.2-63.2
	c-6-9.1-11.2-18.8-14.4-29.5C12,409.4,7.8,388.1,7,366.6v-12.2c0.5-8.6,1.2-17.2,3.1-25.6C12.5,317.9,14.7,307,19,296.8z"/>
<path class="st5" d="M783.4,452.4c2.4-11.2,6.9-21.7,10.5-32.6c-1.7,18.5,1.1,37.1,4.6,55.2c4,21,8.2,42.7,4.4,64.2
	c-2.6,16.8-9.3,32.5-17.7,46.9c0.5-0.1,1.3-0.4,1.8-0.5c15.1-20.8,27.3-44,44.3-63.1c18.9-19.4,38.7-39,50.3-64.6
	c4.3-9.6,7.2-20,8.3-30.6c1.4,10.8,2.8,21.8,1.1,32.7c-2.2,28.6-13.1,55.8-29.3,78.4c-10.9,15.4-24,28.9-38.4,40.4
	c-8.2,6.7-17.1,12.3-25.7,18.2c-15.5,10.5-31,21-45.5,32.9c-0.2-2.5,1.4-4.5,2.4-6.5c6.8-13.4,11.2-28.1,14.1-43
	C776.6,538.2,773.6,494.4,783.4,452.4z"/>
<path class="st5" d="M103.7,425.7c8.5,19.3,12.9,40.4,15.6,61.5c4.2,32.5,4.8,65.5,10.3,97.9c1.2,6.9,2.2,13.9,4.8,20.4
	c3.5,9.8,8.7,18.8,12.2,28.6c-24.3-17.1-49.7-32.6-73-51.3c-18.8-15.1-36.4-32.6-48.5-54.4c-5.2-9.1-8.8-19-12.2-29
	c-3.9-12.1-5.4-25-5.9-37.8v-20.9l0.7-4.9c0.3,1.5,0.7,4.6,1,6.2c3,19.9,13.8,37.2,26,52c16,19.4,34.7,36,49.7,56.4
	c9.9,13.4,16.7,29.2,28.3,41.1c-1.8-6.4-6.6-11.3-8.7-17.6c-8.7-19-11.7-40.8-10-62c1.4-19,7-37.2,9.4-56.1
	C104.9,445.8,105,435.6,103.7,425.7z"/>
<path class="st5" d="M739.1,552.5c8.6-12.7,16.4-26.3,26.5-37.8c-16.2,35.1-11.6,76.3-24.9,112.4c-5.6,15.1-14.8,28.4-25,40.3
	c-4,4.7-8.6,8.8-12.6,13.5c4.8-1.4,8.8-5,12.6-8.5c18.6-19.3,42.1-31.6,65-43.6c13.7-7.3,27.4-14.6,40.1-23.7
	c9.4-6.6,17.8-14.8,25.3-23.8c6.7-8.2,12.5-17.3,16.2-27.5c-2.9,26.4-15.4,50.5-30.9,70.6c-16.3,20.8-36.4,38.1-58.7,50.5
	c-9.9,5.4-20.2,10.2-31,12.7c-25.3,6.5-51.3,9.2-76.1,18.1c11.8-10.7,21.4-24.2,28.4-39c14.6-30.2,20.3-64.3,34.4-94.8
	C731.4,565.2,734.9,558.6,739.1,552.5z"/>
<path class="st5" d="M130.7,519.6c17.1,21.6,33.3,44.6,44.2,70.6c8,20.9,13.4,42.9,21.6,63.7c8,20.8,19.7,40.3,36.2,54.3
	c-20.3-6.8-41.3-9.3-62.3-13.3c-16.3-3.1-32.7-7.3-47.5-15.5c-29.5-17.7-55.8-42.5-73-74c-7.5-13.9-13.2-29-15.4-44.9
	c7.2,17.7,19.1,32.9,33.6,44.3c30.6,24.4,68.9,34.5,99.2,59.6c8.8,7.8,17.8,15.7,28.4,20.4c-6.9-7.2-14.3-13.9-20.7-21.7
	c-4.4-5.4-8-11.5-11.6-17.4c-10.2-17.7-13.9-38.4-16.8-58.6C143.1,564.2,140.7,540.5,130.7,519.6z"/>
<path class="st5" d="M704.2,614.4c-17.7,24-23.3,55.9-42.2,79.1c-7.7,9.8-18,16.6-28.7,21.9c-8.1,3.8-16.9,5.2-24.9,9.3
	c14.2-0.1,27.8-5.3,42-6.9c32.7-5.2,66.2-3.6,98.1-13.6c18.4-5.7,35.5-16.8,47.8-32.7c-5.8,14.4-15.2,26.7-25.7,37.3
	c-17.7,17.6-39.1,30.7-62.3,37.6c-18.9,5.5-38.7,5.6-57.8,2.9c-33.6-4.6-65.7-17.3-99.3-21.3c14.3-3.8,28.8-7.6,42.2-14.5
	c9.5-4.8,18.6-10.9,26.3-18.6C647.1,667.1,672.9,637,704.2,614.4z"/>
<path class="st5" d="M193.4,618.8c29.7,20.9,54.5,48.6,80.4,74.5c19.9,20.4,46.7,30.6,73.3,36c-6.8,2.6-14.2,1.9-21.2,3.8
	c-23,6.1-45.8,13.5-69.3,17.6c-19.1,3.4-38.8,4.6-57.9,1c-32.2-6.3-62.2-25.2-83.3-52.2c-5.6-7.1-10.3-15-14.5-23.1
	c9.9,11.8,22.1,21.3,35.8,27.1c20.4,9,42.6,11.3,64.4,12.9c21.9,1.6,44,2.3,65.6,7.1c7.9,1.3,15.6,4.7,23.7,3.4
	c-4.8-3-10.5-3.8-15.7-5.2c-13.9-4.2-27.1-11.8-36.7-23.5C218.2,675,210.7,643.6,193.4,618.8z"/>
<path class="st5" d="M385.9,729.2c17.5-2.4,35.2-1,52.4,3.2c4.3,1.4,8.7,3.9,13.5,3.5c3.4-0.1,5.7-3.4,9.2-3.9
	c40.2-9.7,83.4-3,120.2,17.2c5.9,2.7,12,5,17.9,7.6c10.1,4.1,19.9,9.1,30.4,11.8c20.8,5.4,42.9,5.2,63.6-0.8
	c11.2-3.3,22.1-8.4,31.5-15.7c-14.8,19.9-35.3,34.5-57.7,42.7c-14.3,5.5-29.8,7.7-45,6.6c-31.7-2.1-61.6-17.2-86.9-37.4
	c-12.9-8.8-24.8-21-40.6-22.9c-8.6-0.3-17.4-0.4-25.9,1.7c36.5,18.2,70,43.1,99.2,73c-5.5,6.5-11.8,12-18.3,17.4
	c-27.6-31.8-57.7-62.1-93.9-82.2c-1.8-0.8-3.5-2.5-5.5-1.8c-7,1.8-13.4,5.9-19.6,9.7c-29.9,20.2-57.5,44.9-79.2,75.1h-0.6
	c-6.2-5.4-12.3-10.8-18.5-16.2c28.9-31.1,62.6-57,99.6-75.4c-13.2-4.5-27.9-2.6-40.2,4.2c-16.4,8.6-29.8,22.2-45.6,31.8
	c-26.6,19.3-59.5,29.2-91.5,24.9c-14.6-1.9-28.6-7.8-41.7-14.8c-14.4-7.9-27.7-18.7-38-32.3c9.1,6.4,19,11.3,29.5,14.3
	c23,6.8,47.8,6.4,70.8-0.8c8.7-2.6,16.8-7,25.2-10.8C327.6,745.9,355.8,733,385.9,729.2z"/>
</svg>
